<svg id="svg" xmlns="http://www.w3.org/2000/svg" xmlns:xlink="http://www.w3.org/1999/xlink" width="400" height="400" viewBox="0, 0, 400,400"><g id="svgg"><path id="path0" d="M56.899 31.259 C 32.528 35.432,11.408 53.731,3.027 77.935 L 0.391 85.547 0.391 200.000 L 0.391 314.453 3.027 322.065 C 10.598 343.928,28.484 360.979,50.558 367.378 L 56.641 369.141 169.531 369.141 L 282.422 369.141 289.453 366.947 C 314.467 359.143,333.513 337.866,337.875 312.853 C 339.270 304.854,339.655 223.536,338.315 220.010 C 337.408 217.625,333.788 215.625,330.379 215.625 C 328.212 215.625,326.507 216.972,317.902 225.487 L 307.935 235.349 307.609 270.995 C 307.337 300.696,307.078 307.240,306.058 310.234 C 301.763 322.835,293.330 331.559,280.749 336.417 C 276.249 338.155,74.765 339.174,63.672 337.515 C 48.396 335.232,34.826 322.196,32.030 307.120 C 30.966 301.381,30.966 98.619,32.030 92.880 C 34.789 78.004,48.325 64.855,63.281 62.522 C 71.307 61.271,270.829 61.498,277.374 62.766 C 284.815 64.207,286.114 63.613,294.755 54.818 C 306.912 42.444,305.334 37.866,286.994 32.296 C 282.046 30.793,65.324 29.816,56.899 31.259 M345.703 47.926 C 342.611 49.442,325.425 66.230,263.288 128.431 L 184.779 207.021 151.960 174.296 C 117.530 139.965,116.546 139.140,109.253 138.478 C 101.035 137.733,99.228 138.895,81.758 156.159 C 61.136 176.539,58.800 180.975,62.882 191.995 C 64.433 196.182,170.381 303.137,175.781 305.967 C 179.600 307.968,189.935 307.967,193.750 305.965 C 198.495 303.474,396.539 104.903,398.388 100.781 C 403.391 89.632,400.780 84.094,381.405 64.766 C 361.881 45.290,356.375 42.692,345.703 47.926 " stroke="none" fill="#000000" fill-rule="evenodd"></path></g></svg>